<?xml version="1.0" encoding="utf-8"?><svg viewBox="0 0 21 20" xmlns="http://www.w3.org/2000/svg" xmlns:xlink="http://www.w3.org/1999/xlink"><style>:root>svg{display:none}:root>svg:target{display:block}</style><svg fill="none" viewBox="0 0 19 19" id="arrow-left" xmlns="http://www.w3.org/2000/svg"><path d="M18.05 9H1.868L7.79 1.215a.538.538 0 00.083-.164.647.647 0 000-.387A.538.538 0 007.79.5a.397.397 0 00-.125-.11.306.306 0 00-.294 0 .397.397 0 00-.124.11L.682 9.145a.448.448 0 00-.065.115L.6 9.31l-.012.05a.276.276 0 000 .043.655.655 0 000 .195.276.276 0 000 .042l.012.05.019.05a.448.448 0 00.065.115L7.246 18.5a.394.394 0 00.124.111.302.302 0 00.295 0 .394.394 0 00.124-.11.531.531 0 00.082-.163.64.64 0 000-.383.533.533 0 00-.082-.162L1.868 10H18.05c.1 0 .197-.053.269-.146a.59.59 0 00.111-.354.59.59 0 00-.111-.353A.341.341 0 0018.05 9z" fill="#000"/></svg><svg fill="none" viewBox="0 0 19 19" id="arrow-right" xmlns="http://www.w3.org/2000/svg"><path d="M.95 10h16.182l-5.922 7.785a.537.537 0 00-.083.164.647.647 0 000 .387c.019.061.047.117.083.164a.397.397 0 00.125.11.306.306 0 00.294 0 .398.398 0 00.124-.11l6.565-8.645a.453.453 0 00.064-.115l.02-.05.01-.05a.274.274 0 000-.043.657.657 0 000-.195.274.274 0 000-.042l-.01-.05-.02-.05a.453.453 0 00-.065-.115L11.754.5a.396.396 0 00-.124-.111.303.303 0 00-.147-.04c-.05 0-.101.014-.148.04a.395.395 0 00-.124.11.53.53 0 00-.083.163.64.64 0 000 .383.53.53 0 00.083.162L17.132 9H.95c-.1 0-.197.053-.269.146A.59.59 0 00.57 9.5c0 .132.04.26.111.353A.341.341 0 00.95 10z" fill="#000"/></svg><svg fill="none" viewBox="0 0 18 18" id="avatar" xmlns="http://www.w3.org/2000/svg"><path d="M17.46 9A8.459 8.459 0 002.41 3.696 8.46 8.46 0 008.96 17.46a8.448 8.448 0 005.87-2.34.359.359 0 00.09-.085A8.437 8.437 0 0017.46 9zM9 1.26a7.74 7.74 0 015.738 12.928 6.396 6.396 0 00-3.96-3.271 3.65 3.65 0 10-3.564 0 6.393 6.393 0 00-3.96 3.272A7.666 7.666 0 011.26 9 7.74 7.74 0 019 1.26zm0 9.405a2.93 2.93 0 110-5.861 2.93 2.93 0 010 5.861zm-5.198 4.066a5.712 5.712 0 0110.396 0 7.727 7.727 0 01-10.396 0z" fill="#000"/></svg><svg fill="none" viewBox="0 0 18 16" id="cart" xmlns="http://www.w3.org/2000/svg"><path d="M8.559 12.31a1.44 1.44 0 100 2.88 1.44 1.44 0 000-2.88zm0 2.16a.72.72 0 11.72-.72.72.72 0 01-.72.714v.005zM13.828 12.31a1.44 1.44 0 100 2.88 1.44 1.44 0 000-2.88zm0 2.16a.72.72 0 11.72-.72.72.72 0 01-.72.714v.005zM15.975 10.115l1.456-6.502a1.161 1.161 0 00-1.134-1.416H4.945L4.72 1.104a.36.36 0 00-.36-.288H.9a.36.36 0 100 .72h3.175l.223 1.093 1.53 7.479.344 1.672a.36.36 0 00.36.288h10.05a.36.36 0 100-.72H6.818l-.196-.956h9a.36.36 0 00.353-.277zm-9.495-.44L5.092 2.918h11.205a.44.44 0 01.432.54l-1.395 6.219H6.48z" fill="#000"/></svg><svg viewBox="0 0 20 20" id="instagram" xmlns="http://www.w3.org/2000/svg"><path fill-rule="evenodd" clip-rule="evenodd" d="M5.877.06C6.944.01 7.284 0 10 0s3.056.012 4.122.06c1.065.048 1.793.218 2.429.465a4.92 4.92 0 011.77 1.154c.51.5.903 1.103 1.153 1.77.248.636.417 1.364.466 2.427.05 1.069.06 1.409.06 4.124 0 2.716-.012 3.056-.06 4.123-.048 1.063-.218 1.79-.466 2.427a4.904 4.904 0 01-1.152 1.772c-.5.509-1.105.902-1.771 1.152-.636.248-1.364.417-2.427.466-1.068.05-1.408.06-4.124.06-2.716 0-3.056-.012-4.123-.06-1.063-.048-1.79-.218-2.427-.466a4.906 4.906 0 01-1.772-1.152A4.902 4.902 0 01.525 16.55c-.247-.636-.416-1.364-.465-2.427C.01 13.055 0 12.715 0 10c0-2.716.012-3.056.06-4.122.048-1.065.218-1.793.465-2.429a4.906 4.906 0 011.154-1.77A4.902 4.902 0 013.45.524C4.085.278 4.813.109 5.876.06h.001zm8.164 1.8c-1.055-.048-1.371-.058-4.041-.058-2.67 0-2.986.01-4.04.058-.976.045-1.505.207-1.858.345-.467.181-.8.397-1.15.747a3.102 3.102 0 00-.747 1.15c-.138.353-.3.882-.345 1.857C1.812 7.014 1.802 7.33 1.802 10c0 2.67.01 2.986.058 4.04.045.976.207 1.506.345 1.858.16.434.415.828.747 1.15.323.332.716.588 1.15.748.353.137.882.3 1.857.344 1.055.048 1.37.058 4.041.058 2.67 0 2.986-.01 4.04-.058.976-.044 1.506-.207 1.858-.345.466-.181.8-.397 1.15-.747.332-.322.588-.716.748-1.15.137-.352.3-.882.344-1.857.048-1.055.058-1.371.058-4.041 0-2.67-.01-2.986-.058-4.04-.044-.976-.207-1.505-.345-1.858a3.106 3.106 0 00-.747-1.15 3.102 3.102 0 00-1.15-.747c-.352-.138-.882-.3-1.857-.345zM8.723 13.083a3.335 3.335 0 003.636-5.442 3.336 3.336 0 10-3.636 5.442zM6.365 6.365a5.14 5.14 0 117.27 7.27 5.14 5.14 0 01-7.27-7.27zm9.915-.74a1.215 1.215 0 10-1.668-1.768 1.215 1.215 0 001.668 1.768z"/></svg><svg viewBox="0 0 21 17" id="telegram" xmlns="http://www.w3.org/2000/svg"><path d="M18.665.11L.935 6.947C-.275 7.433-.268 8.108.713 8.41l4.552 1.42 10.532-6.645c.498-.303.953-.14.579.192l-8.533 7.701H7.84l.002.001-.314 4.692c.46 0 .663-.21.92-.46l2.212-2.15 4.599 3.397c.848.467 1.457.227 1.668-.785l3.019-14.228c.309-1.239-.473-1.8-1.282-1.434z"/></svg><svg viewBox="0 0 21 17" id="twitter" xmlns="http://www.w3.org/2000/svg"><path d="M20.71 1.997a8.508 8.508 0 01-2.44.669A4.26 4.26 0 0020.138.314a8.482 8.482 0 01-2.698 1.03 4.25 4.25 0 00-7.24 3.877A12.066 12.066 0 011.442.781a4.25 4.25 0 001.315 5.673 4.239 4.239 0 01-1.924-.531v.054a4.25 4.25 0 003.408 4.167 4.279 4.279 0 01-1.919.073 4.252 4.252 0 003.97 2.95 8.526 8.526 0 01-5.278 1.82A8.66 8.66 0 010 14.926a12.017 12.017 0 006.512 1.909c7.817 0 12.09-6.474 12.09-12.089 0-.182-.004-.367-.013-.55A8.638 8.638 0 0020.71 2l.001-.003z"/></svg><svg viewBox="0 0 20 11" id="vk" xmlns="http://www.w3.org/2000/svg"><path d="M19.541.733c.14-.423 0-.733-.66-.733h-2.19c-.556 0-.81.268-.95.563 0 0-1.113 2.472-2.69 4.074-.51.467-.742.614-1.02.614-.138 0-.34-.147-.34-.57V.733c0-.508-.16-.733-.624-.733h-3.44C7.28 0 7.07.235 7.07.458c0 .48.789.591.87 1.944v2.934c0 .643-.127.76-.406.76-.742 0-2.547-2.48-3.618-5.32C3.708.223 3.497 0 2.938 0H.751C.125 0 0 .269 0 .564c0 .529.742 3.147 3.454 6.61C5.263 9.538 7.81 10.82 10.13 10.82c1.39 0 1.562-.284 1.562-.776V8.258c0-.569.132-.683.572-.683.324 0 .88.149 2.18 1.288 1.482 1.35 1.728 1.957 2.561 1.957h2.188c.625 0 .937-.285.758-.846-.197-.56-.906-1.373-1.846-2.336-.51-.549-1.274-1.14-1.507-1.435-.324-.381-.23-.55 0-.887.001 0 2.667-3.42 2.944-4.582z"/></svg></svg>