<svg width="277" height="103" viewBox="0 0 277 103" fill="none" xmlns="http://www.w3.org/2000/svg">
<circle cx="51.4998" cy="51.4998" r="49.9998" fill="#111111" stroke="black" stroke-width="3"/>
<path d="M93.7023 50.7498C94.1253 74.0753 75.5369 93.3306 52.18 93.7542C28.8231 94.1778 9.54865 75.6092 9.12561 52.2838C8.70256 28.9584 27.2911 9.70305 50.6479 9.27944C74.0048 8.85583 93.2793 27.4244 93.7023 50.7498Z" fill="white" stroke="white" stroke-width="3"/>
<circle cx="51.4702" cy="51.4702" r="38.6459" transform="rotate(-1.03904 51.4702 51.4702)" fill="#111111" stroke="black" stroke-width="3"/>
<circle cx="51.4998" cy="51.4999" r="6.81615" fill="white"/>
<path d="M69.6762 26.1287C69.6762 26.1287 80.6371 32.0059 82.9298 46.1984C85.2225 60.391 77.9295 69.5569 72.7056 74.9777" stroke="white" stroke-width="4"/>
<path d="M63.6174 39.3822C64.923 39.9842 69.362 43.8972 70.276 49.6161C71.1899 55.3351 67.9193 60.6757 65.8369 62.86" stroke="#FFFDFD" stroke-width="4"/>
<path d="M148.528 57.6C148.528 59.2 147.984 60.784 146.896 62.352C145.84 63.888 144.336 65.136 142.384 66.096C140.464 67.088 138.272 67.584 135.808 67.584C133.728 67.584 132.08 67.408 130.864 67.056C129.648 66.736 129.04 66.272 129.04 65.664C129.04 65.344 129.264 64.816 129.712 64.08C130.192 63.312 130.56 62.928 130.816 62.928C131.2 62.928 131.392 63.008 131.392 63.168C131.392 63.264 131.328 63.376 131.2 63.504C131.104 63.632 131.056 63.76 131.056 63.888C131.056 63.984 131.248 64.128 131.632 64.32C132.048 64.512 132.672 64.688 133.504 64.848C134.336 65.008 135.344 65.088 136.528 65.088C138.416 65.088 140.064 64.72 141.472 63.984C142.912 63.248 144.016 62.32 144.784 61.2C145.552 60.08 145.936 58.992 145.936 57.936C145.936 56.56 145.264 55.376 143.92 54.384C142.608 53.392 140.48 52.448 137.536 51.552C134.688 50.624 132.48 49.856 130.912 49.248C129.376 48.608 128.128 47.84 127.168 46.944C126.208 46.016 125.728 44.896 125.728 43.584C125.728 41.824 126.72 40.096 128.704 38.4C130.688 36.672 133.136 35.28 136.048 34.224C138.96 33.136 141.664 32.592 144.16 32.592C145.44 32.592 146.128 32.848 146.224 33.36C146.32 33.872 146.368 34.448 146.368 35.088C146.368 35.568 146.192 35.808 145.84 35.808C145.68 35.808 145.488 35.76 145.264 35.664C145.072 35.536 144.896 35.44 144.736 35.376C144.544 35.312 144.32 35.248 144.064 35.184C143.808 35.12 143.44 35.088 142.96 35.088C141.296 35.088 139.296 35.52 136.96 36.384C134.624 37.248 132.592 38.32 130.864 39.6C129.168 40.88 128.32 42.112 128.32 43.296C128.32 44.256 128.704 45.088 129.472 45.792C130.272 46.496 131.328 47.104 132.64 47.616C133.952 48.096 135.808 48.704 138.208 49.44C141.728 50.464 144.32 51.616 145.984 52.896C147.68 54.176 148.528 55.744 148.528 57.6ZM167.383 55.44C167.383 55.632 167.047 56.224 166.375 57.216C165.735 58.208 165.079 59.104 164.407 59.904C162.743 61.92 161.239 63.472 159.895 64.56C158.583 65.648 157.207 66.192 155.767 66.192C154.551 66.192 153.543 65.664 152.743 64.608C151.975 63.552 151.591 62.336 151.591 60.96C151.591 58.912 152.135 56.32 153.223 53.184C154.311 50.048 155.687 47.328 157.351 45.024C159.015 42.72 160.679 41.568 162.343 41.568C163.047 41.568 163.655 41.824 164.167 42.336C164.455 42.624 164.727 43.008 164.983 43.488C165.239 43.968 165.367 44.4 165.367 44.784C165.367 45.328 165.287 45.968 165.127 46.704C164.999 47.408 164.855 47.76 164.695 47.76C164.375 47.76 164.167 47.584 164.071 47.232C163.975 46.88 163.911 46.432 163.879 45.888C163.783 45.056 163.687 44.512 163.591 44.256C163.495 43.968 163.351 43.824 163.159 43.824C161.655 43.824 160.199 44.88 158.791 46.992C157.383 49.072 156.231 51.504 155.335 54.288C154.439 57.04 153.991 59.168 153.991 60.672C153.991 62.784 154.695 63.84 156.103 63.84C157.127 63.84 158.055 63.584 158.887 63.072C159.751 62.56 160.647 61.84 161.575 60.912C163.303 59.152 164.647 57.632 165.607 56.352C165.671 56.256 165.847 56.016 166.135 55.632C166.455 55.216 166.679 55.008 166.807 55.008C167.191 55.008 167.383 55.152 167.383 55.44ZM187.307 56.064C187.307 57.312 186.843 58.752 185.915 60.384C184.987 62.016 183.675 63.424 181.979 64.608C180.283 65.76 178.347 66.336 176.171 66.336C174.027 66.336 172.443 65.744 171.419 64.56C170.395 63.376 169.883 61.904 169.883 60.144C169.883 58.608 170.155 56.704 170.699 54.432C171.275 52.16 172.075 50.128 173.099 48.336C173.163 48.208 173.419 47.744 173.867 46.944C174.347 46.112 174.875 45.488 175.451 45.072C176.027 44.624 176.635 44.4 177.275 44.4C177.563 44.4 177.819 44.48 178.043 44.64C178.299 44.768 178.427 44.944 178.427 45.168C178.427 45.232 178.331 45.392 178.139 45.648C177.979 45.872 177.851 46.048 177.755 46.176C176.667 47.488 175.787 48.784 175.115 50.064C174.219 51.696 173.515 53.312 173.003 54.912C172.523 56.512 172.283 58.256 172.283 60.144C172.283 62.672 173.819 63.936 176.891 63.936C178.331 63.936 179.659 63.52 180.875 62.688C182.123 61.856 183.115 60.848 183.851 59.664C184.587 58.448 184.955 57.344 184.955 56.352C184.955 55.232 184.587 54.256 183.851 53.424C183.115 52.592 182.107 51.712 180.827 50.784C179.995 50.176 179.387 49.68 179.003 49.296C178.619 48.912 178.427 48.592 178.427 48.336C178.427 47.952 178.699 47.648 179.243 47.424C179.787 47.168 180.427 47.04 181.163 47.04C181.579 47.04 181.851 47.072 181.979 47.136C182.107 47.168 182.171 47.248 182.171 47.376C182.171 47.44 182.107 47.552 181.979 47.712C181.883 47.84 181.835 47.952 181.835 48.048C181.835 48.144 182.155 48.464 182.795 49.008C184.075 50.064 185.147 51.136 186.011 52.224C186.875 53.312 187.307 54.592 187.307 56.064ZM207.838 56.064C207.838 57.312 207.374 58.752 206.446 60.384C205.518 62.016 204.206 63.424 202.51 64.608C200.814 65.76 198.878 66.336 196.702 66.336C194.558 66.336 192.974 65.744 191.95 64.56C190.926 63.376 190.414 61.904 190.414 60.144C190.414 58.608 190.686 56.704 191.23 54.432C191.806 52.16 192.606 50.128 193.63 48.336C193.694 48.208 193.95 47.744 194.398 46.944C194.878 46.112 195.406 45.488 195.982 45.072C196.558 44.624 197.166 44.4 197.806 44.4C198.094 44.4 198.35 44.48 198.574 44.64C198.83 44.768 198.958 44.944 198.958 45.168C198.958 45.232 198.862 45.392 198.67 45.648C198.51 45.872 198.382 46.048 198.286 46.176C197.198 47.488 196.318 48.784 195.646 50.064C194.75 51.696 194.046 53.312 193.534 54.912C193.054 56.512 192.814 58.256 192.814 60.144C192.814 62.672 194.35 63.936 197.422 63.936C198.862 63.936 200.19 63.52 201.406 62.688C202.654 61.856 203.646 60.848 204.382 59.664C205.118 58.448 205.486 57.344 205.486 56.352C205.486 55.232 205.118 54.256 204.382 53.424C203.646 52.592 202.638 51.712 201.358 50.784C200.526 50.176 199.918 49.68 199.534 49.296C199.15 48.912 198.958 48.592 198.958 48.336C198.958 47.952 199.23 47.648 199.774 47.424C200.318 47.168 200.958 47.04 201.694 47.04C202.11 47.04 202.382 47.072 202.51 47.136C202.638 47.168 202.702 47.248 202.702 47.376C202.702 47.44 202.638 47.552 202.51 47.712C202.414 47.84 202.366 47.952 202.366 48.048C202.366 48.144 202.686 48.464 203.326 49.008C204.606 50.064 205.678 51.136 206.542 52.224C207.406 53.312 207.838 54.592 207.838 56.064ZM232.978 46.128C232.978 46.672 232.738 47.088 232.258 47.376C231.81 47.664 230.978 47.888 229.762 48.048C226.818 48.56 225.17 48.848 224.818 48.912L221.698 49.44C221.698 51.104 221.714 52.848 221.746 54.672C221.81 56.496 221.89 58.096 221.986 59.472C222.114 61.328 222.338 62.752 222.658 63.744C222.978 64.736 223.154 65.296 223.186 65.424C223.186 65.744 222.978 66.032 222.562 66.288C222.178 66.576 221.81 66.72 221.458 66.72C221.266 66.72 221.106 66.656 220.978 66.528C220.85 66.432 220.738 66.256 220.642 66C220.45 65.552 220.258 64.72 220.066 63.504C219.906 62.288 219.778 60.944 219.682 59.472C219.586 58.16 219.506 56.64 219.442 54.912C219.41 53.152 219.394 51.456 219.394 49.824C217.602 50.112 215.762 50.464 213.874 50.88C212.178 51.232 211.17 51.408 210.85 51.408C210.466 51.408 210.098 51.296 209.746 51.072C209.426 50.848 209.266 50.544 209.266 50.16C209.266 49.744 209.41 49.472 209.698 49.344C209.986 49.216 210.466 49.152 211.138 49.152C211.618 49.152 212.322 49.072 213.25 48.912C214.178 48.72 214.77 48.592 215.026 48.528C217.17 48.112 218.626 47.84 219.394 47.712C219.394 47.04 219.362 46.16 219.298 45.072C219.234 43.6 219.202 42.48 219.202 41.712C219.202 40.464 219.234 39.504 219.298 38.832C219.394 38.128 219.554 37.504 219.778 36.96C220.034 36.32 220.514 36 221.218 36C221.506 36 221.698 36.048 221.794 36.144C221.89 36.24 221.938 36.416 221.938 36.672C221.938 36.864 221.858 37.424 221.698 38.352C221.538 39.28 221.458 40.512 221.458 42.048C221.458 43.232 221.49 44.56 221.554 46.032L221.602 47.328C223.042 47.104 225.89 46.512 230.146 45.552C230.402 45.488 230.61 45.264 230.77 44.88C230.962 44.496 231.154 44.304 231.346 44.304C231.698 44.304 232.05 44.512 232.402 44.928C232.786 45.312 232.978 45.712 232.978 46.128ZM253.576 53.76C253.8 53.76 253.912 54 253.912 54.48C253.912 55.056 253.48 56.32 252.616 58.272C251.784 60.224 250.504 62.032 248.776 63.696C247.08 65.36 244.984 66.192 242.488 66.192C240.44 66.192 238.728 65.552 237.352 64.272C235.976 62.992 235.288 61.024 235.288 58.368C235.288 55.872 235.864 53.408 237.016 50.976C238.168 48.512 239.672 46.512 241.528 44.976C243.384 43.408 245.304 42.624 247.288 42.624C248.472 42.624 249.464 42.896 250.264 43.44C251.096 43.952 251.512 44.704 251.512 45.696C251.512 46.816 250.872 47.904 249.592 48.96C248.344 50.016 246.712 50.944 244.696 51.744C242.68 52.544 240.6 53.12 238.456 53.472C238.072 54.944 237.88 56.384 237.88 57.792C237.88 59.648 238.312 61.088 239.176 62.112C240.072 63.136 241.336 63.648 242.968 63.648C245.432 63.648 247.432 62.768 248.968 61.008C250.504 59.248 251.784 57.264 252.808 55.056C252.872 54.928 252.984 54.688 253.144 54.336C253.304 53.952 253.448 53.76 253.576 53.76ZM249.352 46.224C249.352 45.712 249.08 45.312 248.536 45.024C248.024 44.736 247.416 44.592 246.712 44.592C245.496 44.592 244.328 44.992 243.208 45.792C242.088 46.592 241.144 47.552 240.376 48.672C239.64 49.792 239.16 50.784 238.936 51.648C240.408 51.488 241.96 51.072 243.592 50.4C245.224 49.728 246.584 48.992 247.672 48.192C248.792 47.392 249.352 46.736 249.352 46.224ZM274.162 45.792C274.162 46.08 273.954 46.416 273.538 46.8C273.154 47.152 272.818 47.328 272.53 47.328C272.306 47.328 272.082 47.232 271.858 47.04C271.666 46.848 271.442 46.576 271.186 46.224C270.962 45.904 270.658 45.632 270.274 45.408C269.922 45.184 269.554 45.072 269.17 45.072C268.242 45.072 266.994 46.304 265.426 48.768C263.858 51.2 262.322 54.272 260.818 57.984C260.85 58.72 260.898 59.648 260.962 60.768C261.058 61.888 261.122 62.72 261.154 63.264L261.298 65.184C261.298 65.632 261.202 66.016 261.01 66.336C260.818 66.688 260.466 66.864 259.954 66.864C259.41 66.864 259.058 66.144 258.898 64.704C258.738 63.232 258.642 61.104 258.61 58.32C258.578 57.616 258.546 56.608 258.514 55.296C258.514 53.984 258.482 52.416 258.418 50.592C258.322 47.84 258.274 45.872 258.274 44.688C258.274 43.952 258.722 43.584 259.618 43.584C260.162 43.584 260.482 43.824 260.578 44.304C260.706 44.752 260.77 45.632 260.77 46.944V54.576C261.73 52.112 262.77 49.984 263.89 48.192C265.01 46.4 266.098 45.04 267.154 44.112C268.242 43.152 269.202 42.672 270.034 42.672C270.738 42.672 271.41 42.832 272.05 43.152C272.69 43.472 273.202 43.888 273.586 44.4C273.97 44.88 274.162 45.344 274.162 45.792Z" fill="black"/>
</svg>
